<svg width="30" height="29" viewBox="0 0 30 29" fill="none" xmlns="http://www.w3.org/2000/svg">
<path d="M15.48 6.591V6.4067C15.4799 6.29281 15.4461 6.18151 15.3828 6.08686C15.3194 5.99221 15.2294 5.91848 15.1242 5.87497C15.0189 5.83146 14.9031 5.82014 14.7915 5.84244C14.6798 5.86474 14.5772 5.91965 14.4968 6.00024C14.3888 6.108 14.3279 6.25415 14.3274 6.4067V6.59797C14.5376 6.57705 14.7468 6.56609 14.957 6.56609C15.1294 6.56609 15.3037 6.57606 15.48 6.591ZM14.9042 22.3701C15.2139 22.3706 15.5185 22.2908 15.7882 22.1386C16.058 21.9863 16.2837 21.7668 16.4434 21.5014H13.367C13.5265 21.7665 13.7519 21.9859 14.0213 22.1381C14.2907 22.2903 14.5948 22.3703 14.9042 22.3701V22.3701ZM14.9042 3.42305e-08C12.0364 3.42305e-08 9.23295 0.85041 6.84844 2.44369C4.46393 4.03697 2.60543 6.30156 1.50796 8.95109C0.410488 11.6006 0.12334 14.5161 0.682825 17.3288C1.24231 20.1415 2.6233 22.7252 4.65116 24.753C6.67902 26.7809 9.26268 28.1619 12.0754 28.7214C14.8881 29.2809 17.8036 28.9937 20.4531 27.8962C23.1026 26.7988 25.3672 24.9403 26.9605 22.5558C28.5538 20.1713 29.4042 17.3678 29.4042 14.5C29.4043 12.5958 29.0294 10.7102 28.3007 8.95093C27.5721 7.19165 26.504 5.59313 25.1575 4.24666C23.8111 2.90018 22.2126 1.83213 20.4533 1.10348C18.694 0.374833 16.8084 -0.000130807 14.9042 3.42305e-08V3.42305e-08ZM22.9736 20.3508C22.8304 20.6811 22.597 20.9644 22.3 21.1679C22.0031 21.3715 21.6547 21.4871 21.295 21.5014V21.5014H21.2073H18.1828C17.9799 22.2147 17.5501 22.8424 16.9583 23.2893C16.3666 23.7362 15.6453 23.978 14.9037 23.978C14.1622 23.978 13.4408 23.7362 12.8491 23.2893C12.2574 22.8424 11.8275 22.2147 11.6246 21.5014H8.60112H8.51345C8.15335 21.4875 7.80454 21.372 7.50732 21.1682C7.2101 20.9644 6.97661 20.6807 6.83382 20.3498C6.72309 20.0987 6.66608 19.8273 6.66646 19.5528C6.66676 19.0916 6.83134 18.6455 7.1307 18.2946L8.33313 16.876C8.71099 16.428 8.91877 15.8611 8.91991 15.2751V12.5653C8.91864 11.3282 9.30126 10.1212 10.015 9.1107C10.7287 8.10023 11.7384 7.33611 12.9048 6.92374V6.50034C12.9048 5.97059 13.1152 5.46254 13.4898 5.08795C13.8644 4.71336 14.3725 4.50292 14.9022 4.50292C15.432 4.50292 15.94 4.71336 16.3146 5.08795C16.6892 5.46254 16.8996 5.97059 16.8996 6.50034V6.92374C18.066 7.33611 19.0757 8.10023 19.7894 9.1107C20.5032 10.1212 20.8858 11.3282 20.8845 12.5653V15.28C20.8847 15.8663 21.0926 16.4335 21.4713 16.881L22.6737 18.2996C22.9726 18.6508 23.1372 19.0967 23.138 19.5578C23.1386 19.8306 23.0829 20.1005 22.9746 20.3508H22.9736ZM20.2449 17.922C19.62 17.1835 19.2769 16.2475 19.2766 15.28V12.5653C19.2802 11.571 18.9414 10.6058 18.3173 9.83171C17.7981 9.18574 17.1077 8.69895 16.3248 8.42703C16.1853 8.3832 16.0548 8.34534 15.9333 8.31346L15.9104 8.30749H15.9034C15.5886 8.22009 15.2638 8.17355 14.9371 8.16901C14.5296 8.16901 14.1401 8.2527 13.5932 8.39515C12.7669 8.65763 12.0364 9.15803 11.4931 9.8337C10.8682 10.6073 10.5294 11.5729 10.5338 12.5673V15.282C10.5335 16.2495 10.1904 17.1855 9.56546 17.924L8.35904 19.3416C8.30686 19.4004 8.27814 19.4763 8.27834 19.5548C8.27863 19.6059 8.28913 19.6563 8.30923 19.7033C8.32829 19.7469 8.35609 19.7863 8.39092 19.8188C8.44265 19.8654 8.50957 19.8916 8.5792 19.8925H21.2312C21.3005 19.8913 21.367 19.8651 21.4185 19.8188C21.4525 19.7861 21.4799 19.7473 21.4992 19.7043C21.5194 19.657 21.5299 19.6062 21.5301 19.5548C21.5308 19.4762 21.502 19.4001 21.4494 19.3416L20.2449 17.922Z" fill="white"/>
</svg>
