<svg width="30" height="26" viewBox="0 0 30 26" fill="none" xmlns="http://www.w3.org/2000/svg">
<path d="M14.8792 0.0119701C11.8582 -0.0435102 8.89394 0.839423 6.39533 2.53826C3.89672 4.2371 1.98666 6.66861 0.927383 9.49829C-0.131895 12.328 -0.28792 15.4162 0.480898 18.3382C1.24972 21.2602 2.90571 23.8722 5.22047 25.8142C5.43363 25.6263 5.66285 25.4579 5.90635 25.3114L10.2701 22.9335C10.5517 22.7827 10.7871 22.5583 10.9512 22.2842C11.1152 22.01 11.2021 21.6963 11.2019 21.3768V19.5873C10.3623 18.4988 9.76104 17.246 9.43694 15.9101C9.23086 15.7786 9.06097 15.5976 8.94317 15.3834C8.82537 15.1692 8.76309 14.9288 8.76242 14.6843V12.723C8.76259 12.5199 8.80519 12.3193 8.88751 12.1335C8.96983 11.9478 9.09022 11.7811 9.24063 11.6445V8.813C9.24063 8.813 8.6647 4.41278 14.6218 4.41278C20.5789 4.41278 20.0024 8.813 20.0024 8.813V11.6445C20.155 11.78 20.2776 11.9459 20.3621 12.1317C20.4465 12.3175 20.4914 12.5189 20.4931 12.723V14.6843C20.4911 14.9979 20.3885 15.3026 20.2011 15.554C20.0136 15.8053 19.7511 15.9904 19.4511 16.0819C19.116 17.1205 18.6283 18.1034 18.0046 18.999C17.8329 19.2319 17.6857 19.4276 17.5509 19.5747V21.4014C17.5511 21.7332 17.6447 22.0582 17.8202 22.3398C17.9957 22.6214 18.2461 22.8481 18.5438 22.9946L23.2139 25.3359C23.4856 25.4789 23.7406 25.6514 23.974 25.8507C26.2706 23.9442 27.9282 21.3802 28.7238 18.5034C29.5194 15.6266 29.4151 12.5754 28.4245 9.75983C27.4339 6.94426 25.6044 4.49978 23.1828 2.75492C20.7612 1.01007 17.8635 0.0485055 14.8792 0V0.0119701Z" fill="white"/>
</svg>
