<svg width="30" height="29" viewBox="0 0 30 29" fill="none" xmlns="http://www.w3.org/2000/svg">
<path d="M14.888 11.4217C14.2883 11.4217 13.702 11.6022 13.2033 11.9405C12.7047 12.2787 12.316 12.7595 12.0865 13.322C11.857 13.8845 11.7969 14.5034 11.9139 15.1005C12.0309 15.6977 12.3197 16.2462 12.7438 16.6767C13.1679 17.1072 13.7082 17.4004 14.2965 17.5192C14.8847 17.6379 15.4944 17.577 16.0485 17.344C16.6026 17.111 17.0762 16.7164 17.4094 16.2102C17.7426 15.704 17.9204 15.1088 17.9204 14.5C17.9196 13.6838 17.5999 12.9013 17.0314 12.3242C16.4629 11.747 15.692 11.4225 14.888 11.4217ZM23.362 13.4071H22.4641C22.2692 13.4074 22.0797 13.3417 21.9256 13.2205C21.7716 13.0992 21.6617 12.9294 21.6133 12.7377C21.4504 12.0997 21.2003 11.4881 20.8704 10.9206C20.7708 10.7503 20.7299 10.5512 20.7543 10.3547C20.7786 10.1582 20.8668 9.97562 21.0048 9.83569L21.6417 9.18914C21.6812 9.14924 21.7125 9.10182 21.7339 9.04959C21.7553 8.99736 21.7663 8.94136 21.7663 8.8848C21.7663 8.82824 21.7553 8.77223 21.7339 8.72C21.7125 8.66777 21.6812 8.62035 21.6417 8.58045L20.7202 7.644C20.6807 7.60373 20.6338 7.57181 20.5821 7.55009C20.5304 7.52837 20.4749 7.51729 20.4189 7.51748C20.3082 7.51839 20.2023 7.5639 20.1245 7.644L19.4876 8.29055C19.3492 8.42999 19.1692 8.519 18.9757 8.54369C18.7822 8.56838 18.5861 8.52736 18.418 8.42703C17.8579 8.09077 17.254 7.83623 16.6241 7.6709C16.4352 7.62176 16.2679 7.51019 16.1485 7.35378C16.0291 7.19738 15.9644 7.00506 15.9646 6.80718V5.89663C15.9645 5.83977 15.9533 5.78349 15.9317 5.73102C15.9101 5.67855 15.8786 5.63091 15.8388 5.59085C15.7991 5.55078 15.7519 5.51906 15.7001 5.49751C15.6482 5.47596 15.5927 5.46501 15.5367 5.46527H14.2364C14.1238 5.46553 14.0159 5.51106 13.9362 5.5919C13.8566 5.67274 13.8118 5.78231 13.8115 5.89663V6.80917C13.8103 7.00645 13.745 7.19781 13.6258 7.35361C13.5066 7.5094 13.34 7.62093 13.152 7.6709C12.5235 7.83578 11.9209 8.08965 11.362 8.42504C11.194 8.52512 10.9981 8.566 10.8048 8.54132C10.6115 8.51663 10.4317 8.42777 10.2934 8.28856L9.65646 7.64201C9.61709 7.60204 9.57035 7.57033 9.51891 7.5487C9.46747 7.52706 9.41234 7.51593 9.35666 7.51593C9.30098 7.51593 9.24584 7.52706 9.1944 7.5487C9.14296 7.57033 9.09622 7.60204 9.05685 7.64201L8.13438 8.57846C8.0561 8.65781 8.01138 8.76503 8.00975 8.87733C8.00911 8.9342 8.01983 8.99062 8.04125 9.04319C8.06267 9.09575 8.09435 9.14336 8.13438 9.18317L8.77128 9.82971C8.90841 9.97018 8.99595 10.1527 9.02027 10.3489C9.04458 10.5452 9.00431 10.744 8.90572 10.9146C8.57557 11.482 8.32551 12.0937 8.16284 12.7317C8.11352 12.9229 8.00337 13.0922 7.8495 13.2132C7.69564 13.3343 7.50668 13.4004 7.31201 13.4012H6.41015C6.2977 13.4014 6.18992 13.4468 6.11031 13.5274C6.03071 13.6081 5.98574 13.7174 5.98522 13.8315V15.1555C5.98548 15.2698 6.03033 15.3794 6.10996 15.4602C6.1896 15.5411 6.29753 15.5866 6.41015 15.5869H7.30907C7.50374 15.5877 7.69269 15.6537 7.84656 15.7748C8.00043 15.8959 8.11058 16.0652 8.1599 16.2563C8.32257 16.894 8.57264 17.5054 8.90278 18.0724C9.00161 18.2431 9.04202 18.4422 9.0177 18.6386C8.99338 18.8351 8.9057 19.0178 8.76834 19.1583L8.13144 19.8039C8.05186 19.8848 8.00715 19.9944 8.00715 20.1087C8.00715 20.223 8.05186 20.3327 8.13144 20.4136L9.05391 21.35C9.0933 21.3901 9.1401 21.422 9.19163 21.4437C9.24316 21.4654 9.29841 21.4766 9.3542 21.4766C9.41 21.4766 9.46525 21.4654 9.51678 21.4437C9.56831 21.422 9.61511 21.3901 9.6545 21.35L10.2914 20.7035C10.4296 20.5641 10.6094 20.475 10.8027 20.4502C10.996 20.4253 11.192 20.466 11.3601 20.566C11.9189 20.9015 12.5215 21.1554 13.1501 21.3201C13.3386 21.3702 13.5054 21.4822 13.6247 21.6386C13.744 21.795 13.809 21.9871 13.8095 22.1848V23.0964C13.8095 23.153 13.8205 23.2091 13.8419 23.2615C13.8632 23.3138 13.8945 23.3614 13.934 23.4014C13.9735 23.4415 14.0203 23.4732 14.0719 23.4949C14.1234 23.5166 14.1787 23.5278 14.2345 23.5278H15.5367C15.5925 23.5278 15.6478 23.5166 15.6993 23.4949C15.7509 23.4732 15.7977 23.4415 15.8372 23.4014C15.8766 23.3614 15.9079 23.3138 15.9293 23.2615C15.9507 23.2091 15.9616 23.153 15.9616 23.0964V22.1848C15.9622 21.9871 16.0272 21.795 16.1465 21.6386C16.2658 21.4822 16.4326 21.3702 16.6211 21.3201C17.2497 21.1552 17.8522 20.9014 18.4111 20.566C18.5792 20.466 18.7752 20.4253 18.9685 20.4502C19.1618 20.475 19.3415 20.5641 19.4798 20.7035L20.1157 21.35C20.1551 21.3901 20.2019 21.422 20.2534 21.4437C20.305 21.4654 20.3602 21.4766 20.416 21.4766C20.4718 21.4766 20.527 21.4654 20.5786 21.4437C20.6301 21.422 20.6769 21.3901 20.7163 21.35L21.6388 20.4136C21.6783 20.3737 21.7096 20.3262 21.731 20.274C21.7524 20.2218 21.7634 20.1658 21.7634 20.1092C21.7634 20.0527 21.7524 19.9967 21.731 19.9444C21.7096 19.8922 21.6783 19.8448 21.6388 19.8049L21.0019 19.1583C20.8645 19.0178 20.7768 18.8351 20.7525 18.6386C20.7282 18.4422 20.7686 18.2431 20.8674 18.0724C21.1976 17.5054 21.4476 16.894 21.6103 16.2563C21.6587 16.0646 21.7686 15.8948 21.9227 15.7736C22.0768 15.6523 22.2662 15.5867 22.4611 15.5869H23.3591C23.4149 15.5869 23.4701 15.5757 23.5217 15.554C23.5732 15.5324 23.6201 15.5006 23.6595 15.4605C23.699 15.4205 23.7303 15.3729 23.7517 15.3206C23.773 15.2683 23.784 15.2122 23.784 15.1555V13.8375C23.7837 13.7238 23.7393 13.6148 23.6602 13.5342C23.5812 13.4536 23.474 13.4079 23.362 13.4071ZM14.888 19.3626C13.9404 19.3627 13.014 19.0776 12.226 18.5433C11.4379 18.009 10.8237 17.2494 10.461 16.3607C10.0982 15.4719 10.0033 14.4939 10.1881 13.5504C10.3729 12.6069 10.8293 11.7402 11.4993 11.06C12.1694 10.3797 13.0232 9.91648 13.9526 9.72885C14.8821 9.54122 15.8455 9.63762 16.7209 10.0059C17.5964 10.3741 18.3446 10.9976 18.871 11.7976C19.3974 12.5975 19.6782 13.538 19.678 14.5C19.6765 15.7891 19.1713 17.025 18.2734 17.9366C17.3754 18.8482 16.158 19.361 14.888 19.3626ZM14.888 3.42305e-08C12.063 3.42305e-08 9.30144 0.85041 6.95252 2.44369C4.60359 4.03697 2.77283 6.30156 1.69174 8.95109C0.610652 11.6006 0.327787 14.5161 0.878922 17.3288C1.43006 20.1415 2.79044 22.7252 4.78803 24.753C6.78563 26.7809 9.33072 28.1619 12.1015 28.7214C14.8722 29.2809 17.7442 28.9937 20.3541 27.8962C22.9641 26.7988 25.1949 24.9403 26.7644 22.5558C28.3339 20.1713 29.1716 17.3678 29.1716 14.5C29.1718 12.5958 28.8024 10.7102 28.0846 8.95093C27.3668 7.19165 26.3147 5.59313 24.9883 4.24666C23.662 2.90018 22.0873 1.83213 20.3543 1.10348C18.6213 0.374833 16.7638 -0.000130807 14.888 3.42305e-08ZM23.362 17.3771H23.1167C23.0016 17.7173 22.8659 18.05 22.7104 18.3733L22.8851 18.5506C23.2944 18.9663 23.5243 19.53 23.5243 20.1177C23.5243 20.7054 23.2944 21.2691 22.8851 21.6847L21.9626 22.6142C21.7598 22.8203 21.519 22.9837 21.254 23.0952C20.989 23.2067 20.7049 23.2641 20.418 23.2641C20.1311 23.2641 19.847 23.2067 19.5819 23.0952C19.3169 22.9837 19.0761 22.8203 18.8733 22.6142L18.6996 22.4379C18.3811 22.5956 18.0534 22.7333 17.7183 22.8503V23.1004C17.7185 23.6882 17.4889 24.252 17.0798 24.668C16.6708 25.084 16.1157 25.3182 15.5367 25.319H14.2364C13.6575 25.3184 13.1024 25.0847 12.693 24.6692C12.2837 24.2536 12.0534 23.6901 12.0529 23.1024V22.8533C11.7179 22.7361 11.3902 22.5983 11.0716 22.4409L10.8998 22.6142C10.6982 22.8206 10.4582 22.9843 10.1937 23.0956C9.92914 23.207 9.64546 23.2638 9.35911 23.2628C9.07184 23.2641 8.78719 23.2074 8.52168 23.0961C8.25617 22.9847 8.01511 22.821 7.8125 22.6142L6.89101 21.6788C6.68811 21.4731 6.52714 21.2288 6.41732 20.9599C6.3075 20.691 6.25097 20.4028 6.25097 20.1117C6.25097 19.8206 6.3075 19.5324 6.41732 19.2635C6.52714 18.9946 6.68811 18.7503 6.89101 18.5447L7.06569 18.3683C6.9102 18.0451 6.77452 17.7123 6.65941 17.3721H6.41015C5.83146 17.3716 5.27663 17.138 4.86744 16.7226C4.45825 16.3072 4.22814 15.744 4.22762 15.1565V13.8375C4.2284 13.2501 4.45859 12.6871 4.86773 12.2717C5.27686 11.8564 5.83154 11.6227 6.41015 11.6219H6.65647C6.77154 11.2817 6.90722 10.949 7.06275 10.6257L6.88807 10.4484C6.47901 10.0326 6.24924 9.46895 6.24924 8.88131C6.24924 8.29367 6.47901 7.73005 6.88807 7.31425L7.81054 6.3788C8.01315 6.17283 8.25378 6.00943 8.51865 5.89794C8.78353 5.78645 9.06746 5.72906 9.3542 5.72906C9.64094 5.72906 9.92487 5.78645 10.1898 5.89794C10.4546 6.00943 10.6953 6.17283 10.8979 6.3788L11.0716 6.55613C11.39 6.39825 11.7177 6.26051 12.0529 6.1437V5.89663C12.055 5.30995 12.2859 4.74799 12.6951 4.33371C13.1043 3.91942 13.6585 3.68654 14.2364 3.68602H15.5367C16.1154 3.68655 16.6702 3.92014 17.0794 4.33553C17.4886 4.75092 17.7187 5.31416 17.7192 5.90161V6.14668C18.0545 6.26335 18.3822 6.4011 18.7006 6.55912L18.8733 6.38179C19.2829 5.96653 19.8381 5.73329 20.417 5.73329C20.9959 5.73329 21.5511 5.96653 21.9607 6.38179L22.8821 7.31724C23.2914 7.73291 23.5214 8.29658 23.5214 8.8843C23.5214 9.47202 23.2914 10.0357 22.8821 10.4514L22.7084 10.6287C22.8636 10.9521 22.9992 11.2848 23.1147 11.6249H23.3601C23.9388 11.6246 24.4941 11.8574 24.904 12.2722C25.3139 12.687 25.545 13.25 25.5465 13.8375V15.1615C25.546 15.7493 25.3156 16.3128 24.906 16.7283C24.4964 17.1437 23.941 17.3771 23.362 17.3771Z" fill="white"/>
</svg>
