<svg width="38" height="32" viewBox="0 0 38 32" fill="none" xmlns="http://www.w3.org/2000/svg">
<path d="M20.2081 19.4374C19.838 19.6413 19.4223 19.7483 18.9997 19.7483C18.5771 19.7483 18.1614 19.6413 17.7913 19.4374L0.25 9.7605V27.8749C0.250993 28.8691 0.6464 29.8224 1.34945 30.5254C2.05249 31.2285 3.00574 31.6239 4 31.6249H34C34.9943 31.6239 35.9475 31.2285 36.6506 30.5254C37.3536 29.8224 37.749 28.8691 37.75 27.8749V9.7605L20.2081 19.4374Z" fill="#ADB5BD"/>
<path d="M34.001 0.375H4.00098C3.00672 0.375993 2.05347 0.771399 1.35042 1.47445C0.647376 2.17749 0.251969 3.13074 0.250977 4.125V7.25C0.250934 7.36182 0.280892 7.4716 0.337726 7.5679C0.394561 7.6642 0.47619 7.74349 0.574102 7.7975L18.6991 17.7975C18.7915 17.8485 18.8954 17.8752 19.001 17.8752C19.1066 17.8752 19.2104 17.8485 19.3029 17.7975L37.4279 7.7975C37.5258 7.74349 37.6074 7.6642 37.6642 7.5679C37.7211 7.4716 37.751 7.36182 37.751 7.25V4.125C37.75 3.13074 37.3546 2.17749 36.6515 1.47445C35.9485 0.771399 34.9952 0.375993 34.001 0.375Z" fill="#ADB5BD"/>
</svg>
