<svg width="26" height="40" viewBox="0 0 26 40" fill="none" xmlns="http://www.w3.org/2000/svg">
<path d="M13 14.375C6.09625 14.375 0.5 19.9712 0.5 26.875C0.5 33.7787 6.09625 39.375 13 39.375C19.9037 39.375 25.5 33.7787 25.5 26.875C25.5 19.9712 19.9037 14.375 13 14.375ZM13.625 28.6937V32.5H12.375V28.6937C10.6019 28.3956 9.25 26.8575 9.25 25C9.25 22.9287 10.9287 21.25 13 21.25C15.0712 21.25 16.75 22.9287 16.75 25C16.75 26.8575 15.3981 28.3956 13.625 28.6937Z" fill="#ADB5BD"/>
<path d="M6.12598 14.975V8.75C6.12598 4.95937 9.21035 1.875 13.001 1.875C16.7916 1.875 19.876 4.95937 19.876 8.75H21.126C21.126 4.27 17.481 0.625 13.001 0.625C8.52098 0.625 4.87598 4.27 4.87598 8.75V15.7912C5.2766 15.4969 5.6941 15.225 6.12598 14.975Z" fill="#ADB5BD"/>
</svg>
