<svg width="520" height="199" viewBox="0 0 520 199" fill="none" xmlns="http://www.w3.org/2000/svg">
<path d="M87.9166 190V164.896H95.2606C97.3086 164.896 99.1806 165.136 100.877 165.616C102.573 166.064 104.029 166.784 105.245 167.776C106.461 168.736 107.405 170 108.077 171.568C108.749 173.136 109.085 175.024 109.085 177.232C109.085 179.248 108.701 181.056 107.933 182.656C107.197 184.224 106.189 185.568 104.909 186.688C103.629 187.776 102.125 188.608 100.397 189.184C98.7006 189.728 96.8926 190 94.9726 190H87.9166ZM92.7646 169.216V185.68H94.9726C96.5086 185.68 97.8526 185.456 99.0046 185.008C100.157 184.56 101.117 183.952 101.885 183.184C102.653 182.416 103.229 181.52 103.613 180.496C104.029 179.472 104.237 178.384 104.237 177.232C104.237 174.768 103.549 172.816 102.173 171.376C100.797 169.936 98.5086 169.216 95.3086 169.216H92.7646ZM127.865 185.68V190H113.417V164.896H127.865V169.216H118.265V175.264H126.905V179.632H118.265V185.68H127.865ZM142.901 182.848L149.429 164.896H154.421L145.061 190H140.789L131.477 164.896H136.421L142.901 182.848ZM172.49 185.68V190H158.042V164.896H172.49V169.216H162.89V175.264H171.53V179.632H162.89V185.68H172.49ZM191.99 185.68V190H177.542V164.896H182.39V185.68H191.99ZM205.694 186.16C206.718 186.16 207.694 186 208.622 185.68C209.582 185.328 210.414 184.8 211.118 184.096C211.854 183.392 212.43 182.48 212.846 181.36C213.262 180.24 213.47 178.88 213.47 177.28C213.47 175.84 213.262 174.592 212.846 173.536C212.43 172.448 211.886 171.552 211.214 170.848C210.542 170.144 209.758 169.616 208.862 169.264C207.998 168.912 207.102 168.736 206.174 168.736C205.15 168.736 204.174 168.912 203.246 169.264C202.35 169.616 201.55 170.176 200.846 170.944C200.174 171.68 199.63 172.624 199.214 173.776C198.83 174.896 198.638 176.24 198.638 177.808C198.638 179.248 198.83 180.496 199.214 181.552C199.63 182.608 200.158 183.488 200.798 184.192C201.47 184.864 202.222 185.36 203.054 185.68C203.918 186 204.798 186.16 205.694 186.16ZM205.694 190.432C203.87 190.432 202.222 190.128 200.75 189.52C199.278 188.88 198.014 188 196.958 186.88C195.934 185.728 195.15 184.384 194.606 182.848C194.062 181.312 193.79 179.632 193.79 177.808C193.79 175.856 194.062 174.064 194.606 172.432C195.182 170.8 195.998 169.392 197.054 168.208C198.11 166.992 199.39 166.048 200.894 165.376C202.43 164.704 204.158 164.368 206.078 164.368C207.966 164.368 209.662 164.704 211.166 165.376C212.67 166.048 213.95 166.96 215.006 168.112C216.062 169.264 216.878 170.624 217.454 172.192C218.03 173.76 218.318 175.456 218.318 177.28C218.318 179.232 218.03 181.024 217.454 182.656C216.878 184.256 216.046 185.632 214.958 186.784C213.902 187.936 212.59 188.832 211.022 189.472C209.454 190.112 207.678 190.432 205.694 190.432ZM227.483 181.504L227.435 190H222.635V164.896H229.931C231.179 164.896 232.347 165.056 233.435 165.376C234.555 165.664 235.515 166.144 236.315 166.816C237.147 167.456 237.803 168.288 238.283 169.312C238.763 170.304 239.003 171.504 239.003 172.912C239.003 174.448 238.747 175.76 238.235 176.848C237.723 177.936 237.019 178.832 236.123 179.536C235.227 180.208 234.187 180.704 233.003 181.024C231.851 181.344 230.603 181.504 229.259 181.504H227.483ZM227.483 169.216V177.184H229.259C231.115 177.184 232.395 176.784 233.099 175.984C233.803 175.152 234.155 174.144 234.155 172.96C234.155 172.448 234.107 171.968 234.011 171.52C233.947 171.04 233.771 170.64 233.483 170.32C233.195 169.968 232.763 169.696 232.187 169.504C231.643 169.312 230.891 169.216 229.931 169.216H227.483ZM257.802 185.68V190H243.354V164.896H257.802V169.216H248.202V175.264H256.842V179.632H248.202V185.68H257.802ZM282.678 190H277.062L273.606 184.144C272.646 182.512 271.75 181.44 270.918 180.928C270.086 180.384 269.414 180.112 268.902 180.112H267.702L267.654 190H262.854V164.896H270.822C271.878 164.896 272.902 165.04 273.894 165.328C274.918 165.616 275.814 166.064 276.582 166.672C277.382 167.28 278.022 168.032 278.502 168.928C279.014 169.824 279.27 170.896 279.27 172.144C279.27 173.008 279.078 173.776 278.694 174.448C278.342 175.088 277.894 175.648 277.35 176.128C276.806 176.576 276.214 176.944 275.574 177.232C274.934 177.488 274.342 177.632 273.798 177.664C274.534 177.92 275.302 178.592 276.102 179.68C276.902 180.768 277.718 181.984 278.55 183.328L282.678 190ZM267.702 169.216V175.744H270.246C271.622 175.744 272.646 175.44 273.318 174.832C274.022 174.192 274.374 173.296 274.374 172.144C274.374 171.344 274.07 170.672 273.462 170.128C272.854 169.584 271.782 169.296 270.246 169.264L267.702 169.216ZM308.108 181.504L308.06 190H303.26V164.896H310.556C311.804 164.896 312.972 165.056 314.06 165.376C315.18 165.664 316.14 166.144 316.94 166.816C317.772 167.456 318.428 168.288 318.908 169.312C319.388 170.304 319.628 171.504 319.628 172.912C319.628 174.448 319.372 175.76 318.86 176.848C318.348 177.936 317.644 178.832 316.748 179.536C315.852 180.208 314.812 180.704 313.628 181.024C312.476 181.344 311.228 181.504 309.884 181.504H308.108ZM308.108 169.216V177.184H309.884C311.74 177.184 313.02 176.784 313.724 175.984C314.428 175.152 314.78 174.144 314.78 172.96C314.78 172.448 314.732 171.968 314.636 171.52C314.572 171.04 314.396 170.64 314.108 170.32C313.82 169.968 313.388 169.696 312.812 169.504C312.268 169.312 311.516 169.216 310.556 169.216H308.108ZM335.163 186.16C336.187 186.16 337.163 186 338.091 185.68C339.051 185.328 339.883 184.8 340.587 184.096C341.323 183.392 341.899 182.48 342.315 181.36C342.731 180.24 342.939 178.88 342.939 177.28C342.939 175.84 342.731 174.592 342.315 173.536C341.899 172.448 341.355 171.552 340.683 170.848C340.011 170.144 339.227 169.616 338.331 169.264C337.467 168.912 336.571 168.736 335.643 168.736C334.619 168.736 333.643 168.912 332.715 169.264C331.819 169.616 331.019 170.176 330.315 170.944C329.643 171.68 329.099 172.624 328.683 173.776C328.299 174.896 328.107 176.24 328.107 177.808C328.107 179.248 328.299 180.496 328.683 181.552C329.099 182.608 329.627 183.488 330.267 184.192C330.939 184.864 331.691 185.36 332.523 185.68C333.387 186 334.267 186.16 335.163 186.16ZM335.163 190.432C333.339 190.432 331.691 190.128 330.219 189.52C328.747 188.88 327.483 188 326.427 186.88C325.403 185.728 324.619 184.384 324.075 182.848C323.531 181.312 323.259 179.632 323.259 177.808C323.259 175.856 323.531 174.064 324.075 172.432C324.651 170.8 325.467 169.392 326.523 168.208C327.579 166.992 328.859 166.048 330.363 165.376C331.899 164.704 333.627 164.368 335.547 164.368C337.435 164.368 339.131 164.704 340.635 165.376C342.139 166.048 343.419 166.96 344.475 168.112C345.531 169.264 346.347 170.624 346.923 172.192C347.499 173.76 347.787 175.456 347.787 177.28C347.787 179.232 347.499 181.024 346.923 182.656C346.347 184.256 345.515 185.632 344.427 186.784C343.371 187.936 342.059 188.832 340.491 189.472C338.923 190.112 337.147 190.432 335.163 190.432ZM372.116 190H366.5L363.044 184.144C362.084 182.512 361.188 181.44 360.356 180.928C359.524 180.384 358.852 180.112 358.34 180.112H357.14L357.092 190H352.292V164.896H360.26C361.316 164.896 362.34 165.04 363.332 165.328C364.356 165.616 365.252 166.064 366.02 166.672C366.82 167.28 367.46 168.032 367.94 168.928C368.452 169.824 368.708 170.896 368.708 172.144C368.708 173.008 368.516 173.776 368.132 174.448C367.78 175.088 367.332 175.648 366.788 176.128C366.244 176.576 365.652 176.944 365.012 177.232C364.372 177.488 363.78 177.632 363.236 177.664C363.972 177.92 364.74 178.592 365.54 179.68C366.34 180.768 367.156 181.984 367.988 183.328L372.116 190ZM357.14 169.216V175.744H359.684C361.06 175.744 362.084 175.44 362.756 174.832C363.46 174.192 363.812 173.296 363.812 172.144C363.812 171.344 363.508 170.672 362.9 170.128C362.292 169.584 361.22 169.296 359.684 169.264L357.14 169.216ZM391.072 164.896V169.216H384.592V190H379.743V169.216H373.024V164.896H391.072ZM401.212 179.584H406.636L403.948 171.856L401.212 179.584ZM406.108 164.896L415.468 190H410.476L408.172 183.856H399.676L397.324 190H392.524L401.836 164.896H406.108ZM433.537 185.68V190H419.089V164.896H423.937V185.68H433.537Z" fill="white"/>
<g clip-path="url(#clip0_741_2636)">
<path d="M111.295 30.9148H102V124.609H111.295V30.9148Z" fill="white"/>
<path d="M189.571 38.2547C194.018 39.3785 198.254 41.2262 202.115 43.7256C205.426 45.766 208.367 48.3651 210.812 51.41C211.431 52.2035 211.915 52.8925 212.246 53.3728L219.467 47.7558C219.26 47.3904 218.951 46.8682 218.538 46.2626C217.547 44.8082 216.398 43.4707 215.113 42.2745C209.675 36.6926 202.934 32.5881 195.513 30.3406C190.358 28.7309 185.001 27.8801 179.606 27.8141C174.742 27.7126 169.886 28.2638 165.164 29.4533C160.483 30.6576 155.995 32.5313 151.836 35.018C147.622 37.6111 143.817 40.8318 140.551 44.5714C137.761 47.7228 135.396 51.2334 133.515 55.012C131.731 58.8376 130.441 62.8802 129.678 67.0397C127.704 77.8325 129.043 88.9779 133.515 98.9774C137.109 106.69 142.627 113.323 149.525 118.22C158.583 124.484 167.32 125.601 172.56 126.228C179.459 127.078 186.452 126.635 193.192 124.923C199.415 123.417 205.281 120.678 210.451 116.862C213.899 114.291 216.981 111.252 219.611 107.831L214.525 103.801L212.39 102.214L211.235 103.383L207.717 106.944C204.787 109.623 201.503 111.876 197.958 113.636C191.432 116.735 184.244 118.135 177.048 117.708C170.668 117.503 164.425 115.787 158.82 112.697C152.378 109.103 147.047 103.772 143.418 97.2966C140.035 90.7755 138.38 83.4778 138.615 76.1161C138.85 68.7544 140.967 61.5803 144.759 55.2939C148.663 49.2905 154.113 44.4814 160.522 41.3869C165.836 38.8041 171.612 37.3405 177.502 37.0853C181.56 36.8864 185.625 37.2803 189.571 38.2547Z" fill="white"/>
<path d="M350.302 124.473H359.885V53.2578L421.089 124.338H423.307V30.4972H414.291V102.84L352.386 30.3511H350.302V124.473Z" fill="white"/>
<path d="M282.3 127C309.539 127 331.62 104.651 331.62 77.0832C331.62 49.515 309.539 27.1665 282.3 27.1665C255.062 27.1665 232.98 49.515 232.98 77.0832C232.98 104.651 255.062 127 282.3 127Z" fill="url(#paint0_linear_741_2636)"/>
<path d="M282.393 124.797C307.956 124.797 328.68 103.463 328.68 77.146C328.68 50.829 307.956 29.4949 282.393 29.4949C256.829 29.4949 236.105 50.829 236.105 77.146C236.105 103.463 256.829 124.797 282.393 124.797Z" stroke="white" stroke-width="1.13" stroke-miterlimit="10"/>
<path d="M282.94 68.0312C296.847 68.0312 308.121 60.4446 308.121 51.086C308.121 41.7275 296.847 34.1409 282.94 34.1409C269.033 34.1409 257.759 41.7275 257.759 51.086C257.759 60.4446 269.033 68.0312 282.94 68.0312Z" fill="url(#paint1_linear_741_2636)"/>
</g>
<defs>
<linearGradient id="paint0_linear_741_2636" x1="282.3" y1="27.1665" x2="282.3" y2="127" gradientUnits="userSpaceOnUse">
<stop stop-color="#EE212D"/>
<stop offset="1" stop-color="#C32D2D"/>
</linearGradient>
<linearGradient id="paint1_linear_741_2636" x1="282.94" y1="34.1409" x2="282.94" y2="68.0312" gradientUnits="userSpaceOnUse">
<stop stop-color="white"/>
<stop offset="0.54" stop-color="white" stop-opacity="0.2"/>
<stop offset="1" stop-color="white" stop-opacity="0"/>
</linearGradient>
<clipPath id="clip0_741_2636">
<rect width="341" height="127" fill="white" transform="translate(102)"/>
</clipPath>
</defs>
</svg>
