<svg width="119" height="106" viewBox="0 0 119 106" fill="none" xmlns="http://www.w3.org/2000/svg">
<path d="M118.964 52.8965C118.964 56.623 115.865 59.5422 112.352 59.5422H105.741L105.885 92.6879C105.906 100.038 99.9765 106 92.6627 106H26.4662C19.1627 106 13.2414 100.058 13.2414 92.75V59.5422H6.62172C2.89661 59.5422 0 56.623 0 52.8965C0 51.0332 0.620644 49.377 2.06812 47.9277L55.0398 1.65956C56.486 0.207445 58.1389 0 59.5851 0C61.0314 0 62.6842 0.414891 63.9445 1.45212L85.948 20.848V13.25C85.948 9.59176 88.9025 6.625 92.5594 6.625H99.1708C102.828 6.625 105.782 9.59176 105.782 13.25V38.3008L116.691 47.9277C118.344 49.377 119.191 51.0332 118.964 52.8965ZM51.2382 39.75C48.4904 39.75 46.2797 41.9652 46.2797 44.7188V61.2812C46.2797 64.0348 48.4904 66.25 51.2382 66.25H67.7667C70.5146 66.25 72.7252 64.0348 72.7252 61.2812V44.7188C72.7252 41.9652 70.5146 39.75 67.7667 39.75H51.2382Z" fill="white"/>
</svg>
