<svg width="138" height="28" viewBox="0 0 138 28" fill="none" xmlns="http://www.w3.org/2000/svg">
<path d="M86.694 13V6.724H88.53C89.042 6.724 89.51 6.784 89.934 6.904C90.358 7.016 90.722 7.196 91.026 7.444C91.33 7.684 91.566 8 91.734 8.392C91.902 8.784 91.986 9.256 91.986 9.808C91.986 10.312 91.89 10.764 91.698 11.164C91.514 11.556 91.262 11.892 90.942 12.172C90.622 12.444 90.246 12.652 89.814 12.796C89.39 12.932 88.938 13 88.458 13H86.694ZM87.906 7.804V11.92H88.458C88.842 11.92 89.178 11.864 89.466 11.752C89.754 11.64 89.994 11.488 90.186 11.296C90.378 11.104 90.522 10.88 90.618 10.624C90.722 10.368 90.774 10.096 90.774 9.808C90.774 9.192 90.602 8.704 90.258 8.344C89.914 7.984 89.342 7.804 88.542 7.804H87.906ZM96.306 11.92V13H92.694V6.724H96.306V7.804H93.906V9.316H96.066V10.408H93.906V11.92H96.306ZM99.69 11.212L101.322 6.724H102.57L100.23 13H99.162L96.834 6.724H98.07L99.69 11.212ZM106.712 11.92V13H103.1V6.724H106.712V7.804H104.312V9.316H106.472V10.408H104.312V11.92H106.712ZM111.212 11.92V13H107.6V6.724H108.812V11.92H111.212ZM114.263 12.04C114.519 12.04 114.763 12 114.995 11.92C115.235 11.832 115.443 11.7 115.619 11.524C115.803 11.348 115.947 11.12 116.051 10.84C116.155 10.56 116.207 10.22 116.207 9.82C116.207 9.46 116.155 9.148 116.051 8.884C115.947 8.612 115.811 8.388 115.643 8.212C115.475 8.036 115.279 7.904 115.055 7.816C114.839 7.728 114.615 7.684 114.383 7.684C114.127 7.684 113.883 7.728 113.651 7.816C113.427 7.904 113.227 8.044 113.051 8.236C112.883 8.42 112.747 8.656 112.643 8.944C112.547 9.224 112.499 9.56 112.499 9.952C112.499 10.312 112.547 10.624 112.643 10.888C112.747 11.152 112.879 11.372 113.039 11.548C113.207 11.716 113.395 11.84 113.603 11.92C113.819 12 114.039 12.04 114.263 12.04ZM114.263 13.108C113.807 13.108 113.395 13.032 113.027 12.88C112.659 12.72 112.343 12.5 112.079 12.22C111.823 11.932 111.627 11.596 111.491 11.212C111.355 10.828 111.287 10.408 111.287 9.952C111.287 9.464 111.355 9.016 111.491 8.608C111.635 8.2 111.839 7.848 112.103 7.552C112.367 7.248 112.687 7.012 113.063 6.844C113.447 6.676 113.879 6.592 114.359 6.592C114.831 6.592 115.255 6.676 115.631 6.844C116.007 7.012 116.327 7.24 116.591 7.528C116.855 7.816 117.059 8.156 117.203 8.548C117.347 8.94 117.419 9.364 117.419 9.82C117.419 10.308 117.347 10.756 117.203 11.164C117.059 11.564 116.851 11.908 116.579 12.196C116.315 12.484 115.987 12.708 115.595 12.868C115.203 13.028 114.759 13.108 114.263 13.108ZM119.336 10.876L119.324 13H118.124V6.724H119.948C120.26 6.724 120.552 6.764 120.824 6.844C121.104 6.916 121.344 7.036 121.544 7.204C121.752 7.364 121.916 7.572 122.036 7.828C122.156 8.076 122.216 8.376 122.216 8.728C122.216 9.112 122.152 9.44 122.024 9.712C121.896 9.984 121.72 10.208 121.496 10.384C121.272 10.552 121.012 10.676 120.716 10.756C120.428 10.836 120.116 10.876 119.78 10.876H119.336ZM119.336 7.804V9.796H119.78C120.244 9.796 120.564 9.696 120.74 9.496C120.916 9.288 121.004 9.036 121.004 8.74C121.004 8.612 120.992 8.492 120.968 8.38C120.952 8.26 120.908 8.16 120.836 8.08C120.764 7.992 120.656 7.924 120.512 7.876C120.376 7.828 120.188 7.804 119.948 7.804H119.336ZM126.54 11.92V13H122.928V6.724H126.54V7.804H124.14V9.316H126.3V10.408H124.14V11.92H126.54ZM132.384 13H130.98L130.116 11.536C129.876 11.128 129.652 10.86 129.444 10.732C129.236 10.596 129.068 10.528 128.94 10.528H128.64L128.628 13H127.428V6.724H129.42C129.684 6.724 129.94 6.76 130.188 6.832C130.444 6.904 130.668 7.016 130.86 7.168C131.06 7.32 131.22 7.508 131.34 7.732C131.468 7.956 131.532 8.224 131.532 8.536C131.532 8.752 131.484 8.944 131.388 9.112C131.3 9.272 131.188 9.412 131.052 9.532C130.916 9.644 130.768 9.736 130.608 9.808C130.448 9.872 130.3 9.908 130.164 9.916C130.348 9.98 130.54 10.148 130.74 10.42C130.94 10.692 131.144 10.996 131.352 11.332L132.384 13ZM128.64 7.804V9.436H129.276C129.62 9.436 129.876 9.36 130.044 9.208C130.22 9.048 130.308 8.824 130.308 8.536C130.308 8.336 130.232 8.168 130.08 8.032C129.928 7.896 129.66 7.824 129.276 7.816L128.64 7.804ZM87.906 22.876L87.894 25H86.694V18.724H88.518C88.83 18.724 89.122 18.764 89.394 18.844C89.674 18.916 89.914 19.036 90.114 19.204C90.322 19.364 90.486 19.572 90.606 19.828C90.726 20.076 90.786 20.376 90.786 20.728C90.786 21.112 90.722 21.44 90.594 21.712C90.466 21.984 90.29 22.208 90.066 22.384C89.842 22.552 89.582 22.676 89.286 22.756C88.998 22.836 88.686 22.876 88.35 22.876H87.906ZM87.906 19.804V21.796H88.35C88.814 21.796 89.134 21.696 89.31 21.496C89.486 21.288 89.574 21.036 89.574 20.74C89.574 20.612 89.562 20.492 89.538 20.38C89.522 20.26 89.478 20.16 89.406 20.08C89.334 19.992 89.226 19.924 89.082 19.876C88.946 19.828 88.758 19.804 88.518 19.804H87.906ZM94.2947 24.04C94.5507 24.04 94.7947 24 95.0267 23.92C95.2667 23.832 95.4747 23.7 95.6507 23.524C95.8347 23.348 95.9787 23.12 96.0827 22.84C96.1867 22.56 96.2387 22.22 96.2387 21.82C96.2387 21.46 96.1867 21.148 96.0827 20.884C95.9787 20.612 95.8427 20.388 95.6747 20.212C95.5067 20.036 95.3107 19.904 95.0867 19.816C94.8707 19.728 94.6467 19.684 94.4147 19.684C94.1587 19.684 93.9147 19.728 93.6827 19.816C93.4587 19.904 93.2587 20.044 93.0827 20.236C92.9147 20.42 92.7787 20.656 92.6747 20.944C92.5787 21.224 92.5307 21.56 92.5307 21.952C92.5307 22.312 92.5787 22.624 92.6747 22.888C92.7787 23.152 92.9107 23.372 93.0707 23.548C93.2387 23.716 93.4267 23.84 93.6347 23.92C93.8507 24 94.0707 24.04 94.2947 24.04ZM94.2947 25.108C93.8387 25.108 93.4267 25.032 93.0587 24.88C92.6907 24.72 92.3747 24.5 92.1107 24.22C91.8547 23.932 91.6587 23.596 91.5227 23.212C91.3867 22.828 91.3187 22.408 91.3187 21.952C91.3187 21.464 91.3867 21.016 91.5227 20.608C91.6667 20.2 91.8707 19.848 92.1347 19.552C92.3987 19.248 92.7187 19.012 93.0947 18.844C93.4787 18.676 93.9107 18.592 94.3907 18.592C94.8627 18.592 95.2867 18.676 95.6627 18.844C96.0387 19.012 96.3587 19.24 96.6227 19.528C96.8867 19.816 97.0907 20.156 97.2347 20.548C97.3787 20.94 97.4507 21.364 97.4507 21.82C97.4507 22.308 97.3787 22.756 97.2347 23.164C97.0907 23.564 96.8827 23.908 96.6107 24.196C96.3467 24.484 96.0187 24.708 95.6267 24.868C95.2347 25.028 94.7907 25.108 94.2947 25.108ZM103.158 25H101.754L100.89 23.536C100.65 23.128 100.426 22.86 100.218 22.732C100.01 22.596 99.8418 22.528 99.7138 22.528H99.4138L99.4018 25H98.2018V18.724H100.194C100.458 18.724 100.714 18.76 100.962 18.832C101.218 18.904 101.442 19.016 101.634 19.168C101.834 19.32 101.994 19.508 102.114 19.732C102.242 19.956 102.306 20.224 102.306 20.536C102.306 20.752 102.258 20.944 102.162 21.112C102.074 21.272 101.962 21.412 101.826 21.532C101.69 21.644 101.542 21.736 101.382 21.808C101.222 21.872 101.074 21.908 100.938 21.916C101.122 21.98 101.314 22.148 101.514 22.42C101.714 22.692 101.918 22.996 102.126 23.332L103.158 25ZM99.4138 19.804V21.436H100.05C100.394 21.436 100.65 21.36 100.818 21.208C100.994 21.048 101.082 20.824 101.082 20.536C101.082 20.336 101.006 20.168 100.854 20.032C100.702 19.896 100.434 19.824 100.05 19.816L99.4138 19.804ZM107.522 18.724V19.804H105.902V25H104.69V19.804H103.01V18.724H107.522ZM109.682 22.396H111.038L110.366 20.464L109.682 22.396ZM110.906 18.724L113.246 25H111.998L111.422 23.464H109.298L108.71 25H107.51L109.838 18.724H110.906ZM117.388 23.92V25H113.776V18.724H114.988V23.92H117.388Z" fill="white"/>
<path d="M78 5L78 27" stroke="white" stroke-linecap="round"/>
<g clip-path="url(#clip0_475_1556)">
<path d="M1.90797 6.63986H0V26.0058H1.90797V6.63986Z" fill="white"/>
<path d="M17.9769 8.15696C18.8897 8.38923 19.7594 8.77114 20.5519 9.28776C21.2316 9.70948 21.8353 10.2467 22.3371 10.8761C22.4641 11.0401 22.5637 11.1825 22.6314 11.2818L24.1138 10.1208C24.0714 10.0452 24.0079 9.9373 23.9232 9.81214C23.7197 9.51152 23.4839 9.23506 23.2201 8.98782C22.1037 7.83408 20.7199 6.98571 19.1966 6.52118C18.1384 6.18845 17.0387 6.01259 15.9313 5.99895C14.9327 5.97797 13.9358 6.09191 12.9666 6.33778C12.0056 6.58669 11.0843 6.97396 10.2306 7.48796C9.36555 8.02393 8.58459 8.68962 7.91398 9.46257C7.3414 10.1139 6.85578 10.8396 6.46975 11.6206C6.10341 12.4113 5.83865 13.2469 5.682 14.1066C5.27688 16.3374 5.55178 18.6411 6.46975 20.7079C7.20754 22.3021 8.34028 23.673 9.7563 24.6852C11.6156 25.98 13.4092 26.2108 14.4849 26.3403C15.901 26.5161 17.3366 26.4246 18.7202 26.0706C19.9976 25.7594 21.2018 25.1932 22.263 24.4046C22.9708 23.8731 23.6035 23.245 24.1434 22.5379L23.0994 21.7049L22.6611 21.3769L22.4239 21.6186L21.7018 22.3545C21.1004 22.9083 20.4262 23.3739 19.6985 23.7378C18.3589 24.3783 16.8834 24.6677 15.4061 24.5794C14.0965 24.5371 12.8149 24.1823 11.6643 23.5436C10.3419 22.8008 9.24747 21.699 8.50266 20.3605C7.80811 19.0126 7.4684 17.5042 7.51665 15.9826C7.56489 14.461 7.99947 12.9782 8.77796 11.6788C9.57921 10.438 10.6981 9.44398 12.0137 8.80436C13.1045 8.27051 14.2903 7.968 15.4993 7.91524C16.3323 7.87413 17.1667 7.95555 17.9769 8.15696Z" fill="white"/>
<path d="M50.9707 25.9778H52.938V11.258L65.5018 25.9497H65.9571V6.55354H64.1063V21.5064L51.3985 6.52333H50.9707V25.9778Z" fill="white"/>
<path d="M37.012 26.5C42.6035 26.5 47.1364 21.8807 47.1364 16.1826C47.1364 10.4844 42.6035 5.86514 37.012 5.86514C31.4205 5.86514 26.8877 10.4844 26.8877 16.1826C26.8877 21.8807 31.4205 26.5 37.012 26.5Z" fill="url(#paint0_linear_475_1556)"/>
<path d="M37.031 26.0447C42.2787 26.0447 46.5328 21.6351 46.5328 16.1955C46.5328 10.756 42.2787 6.34637 37.031 6.34637C31.7834 6.34637 27.5293 10.756 27.5293 16.1955C27.5293 21.6351 31.7834 26.0447 37.031 26.0447Z" stroke="white" stroke-width="1.13" stroke-miterlimit="10"/>
<path d="M37.1427 14.3116C39.9976 14.3116 42.3118 12.7435 42.3118 10.8091C42.3118 8.87478 39.9976 7.30669 37.1427 7.30669C34.2879 7.30669 31.9736 8.87478 31.9736 10.8091C31.9736 12.7435 34.2879 14.3116 37.1427 14.3116Z" fill="url(#paint1_linear_475_1556)"/>
</g>
<defs>
<linearGradient id="paint0_linear_475_1556" x1="37.012" y1="5.86514" x2="37.012" y2="26.5" gradientUnits="userSpaceOnUse">
<stop stop-color="#EE212D"/>
<stop offset="1" stop-color="#C32D2D"/>
</linearGradient>
<linearGradient id="paint1_linear_475_1556" x1="37.1427" y1="7.30669" x2="37.1427" y2="14.3116" gradientUnits="userSpaceOnUse">
<stop stop-color="white"/>
<stop offset="0.54" stop-color="white" stop-opacity="0.2"/>
<stop offset="1" stop-color="white" stop-opacity="0"/>
</linearGradient>
<clipPath id="clip0_475_1556">
<rect width="70" height="26.25" fill="white" transform="translate(0 0.25)"/>
</clipPath>
</defs>
</svg>
